<svg xmlns="http://www.w3.org/2000/svg" viewBox="0 0 121 121"><defs><style>.cls-1{fill:#e4e8f8}.cls-2{fill:none;stroke:#204ecf;stroke-linejoin:round}</style></defs><g id="Layer_2" data-name="Layer 2"><g id="Icons"><path class="cls-1" d="M22.84 7.11a2.33 2.33 0 1 1-4.66 0h-1.94a2.33 2.33 0 1 1-4.66 0H9.64a2.33 2.33 0 0 1-4.64 0H.5v6.6H108v-6.6zM7.87 100.7h51a30.74 30.74 0 0 0 4.24 7.3H6.67a6.17 6.17 0 0 1-6.17-6.17v-8.5a7.37 7.37 0 0 0 7.37 7.37zM16 18.73h76.5v27.43H16z"/><path class="cls-2" d="M63.13 108H6.5a6 6 0 0 1-6-6V13.71H108V56.5M.5 9.94V6.5a6 6 0 0 1 6-6H102a6 6 0 0 1 6 6v3.44"/><circle class="cls-2" cx="7.31" cy="7.11" r="2.33"/><circle class="cls-2" cx="13.91" cy="7.11" r="2.33"/><circle class="cls-2" cx="20.51" cy="7.11" r="2.33"/><circle class="cls-2" cx="88.5" cy="88.5" r="32"/><path class="cls-2" d="M79.16 87.47l8.3 8.29 12.84-12.84M16 59h24.17M16 71.83h39.25M16 78.42h37M16 85.01h10"/></g></g></svg>