<?xml version="1.0" standalone="no"?>
<!DOCTYPE svg PUBLIC "-//W3C//DTD SVG 20010904//EN"
 "http://www.w3.org/TR/2001/REC-SVG-20010904/DTD/svg10.dtd">
<svg version="1.0" xmlns="http://www.w3.org/2000/svg"
 width="541.000000pt" height="381.000000pt" viewBox="0 0 541.000000 381.000000"
 preserveAspectRatio="xMidYMid meet">
<metadata>
Created by potrace 1.16, written by Peter Selinger 2001-2019
</metadata>
<g transform="translate(0.000000,381.000000) scale(0.100000,-0.100000)"
fill="#000000" stroke="none">
<path d="M1114 3166 c-35 -35 -42 -65 -25 -108 8 -21 170 -204 676 -763 222
-246 230 -255 230 -265 0 -8 -117 -140 -636 -715 -129 -143 -244 -273 -256
-289 -35 -44 -31 -90 11 -132 l34 -34 363 0 362 0 41 42 c33 36 468 518 750
832 39 44 96 106 126 139 30 32 64 73 77 90 30 40 30 95 1 133 -61 78 -952
1062 -980 1082 -31 22 -34 22 -385 22 l-355 0 -34 -34z"/>
<path d="M2520 3187 c-45 -23 -64 -92 -38 -140 6 -12 211 -244 456 -515 366
-406 443 -497 436 -512 -5 -10 -205 -235 -444 -501 -239 -265 -440 -492 -447
-503 -28 -47 -4 -129 43 -146 14 -6 175 -10 371 -10 300 0 348 2 371 16 43 26
996 1092 1006 1125 5 17 5 41 0 58 -7 23 -296 351 -716 815 -21 23 -88 98
-150 167 -62 70 -125 134 -140 143 -23 14 -70 16 -375 16 -259 0 -354 -4 -373
-13z"/>
</g>
</svg>
